<?xml version="1.0" standalone="no"?>
<!DOCTYPE svg PUBLIC "-//W3C//DTD SVG 20010904//EN"
 "http://www.w3.org/TR/2001/REC-SVG-20010904/DTD/svg10.dtd">
<svg version="1.0" xmlns="http://www.w3.org/2000/svg"
 width="5760.000000pt" height="14132.000000pt" viewBox="0 0 5760.000000 14132.000000"
 preserveAspectRatio="xMidYMid meet">

<g transform="translate(0.000000,14132.000000) scale(0.100000,-0.100000)"
fill="#000000" stroke="none">
<path d="M41983 113530 c-58 -33 -96 -83 -112 -145 -6 -26 -7 -183 -3 -446 l7
-406 30 -48 c17 -27 50 -63 74 -80 39 -27 50 -30 124 -30 l82 0 354 209 c378
224 398 239 422 330 21 76 -8 172 -68 227 -28 26 -644 378 -709 405 -18 8 -59
14 -91 14 -46 0 -69 -6 -110 -30z"/>
<path d="M55955 113534 c-800 -39 -1317 -91 -1970 -200 -2391 -398 -4652
-1368 -6610 -2837 -2377 -1783 -4163 -4196 -5168 -6984 -782 -2168 -1063
-4489 -821 -6783 302 -2857 1417 -5573 3218 -7839 363 -458 673 -807 1091
-1230 1029 -1042 2143 -1888 3430 -2605 278 -155 881 -455 1180 -588 2027
-899 4219 -1348 6410 -1315 364 6 617 16 813 33 l72 6 0 55 0 55 -82 -6 c-580
-44 -1380 -44 -2018 -1 -4429 305 -8446 2485 -11081 6015 -1425 1908 -2366
4076 -2778 6401 -235 1327 -290 2711 -161 4059 401 4179 2490 7966 5805 10522
368 284 945 681 1335 921 1642 1005 3468 1690 5345 2006 582 98 1070 152 1735
193 408 25 1502 14 1838 -18 l62 -6 0 55 0 56 -52 5 c-173 19 -469 28 -963 31
-308 1 -591 1 -630 -1z"/>
<path d="M57030 110874 c-19 -2 -105 -8 -190 -14 -330 -23 -825 -82 -1175
-141 -2314 -385 -4456 -1346 -6280 -2818 -419 -338 -664 -559 -1086 -980 -336
-337 -550 -569 -814 -886 -1813 -2174 -2893 -4865 -3095 -7710 -43 -614 -41
-1342 6 -1965 320 -4275 2687 -8179 6334 -10447 659 -410 1414 -790 2135
-1076 1285 -510 2616 -817 4000 -922 210 -16 580 -35 678 -35 l57 0 0 60 0 60
-82 0 c-299 0 -997 56 -1433 115 -3204 432 -6153 2009 -8268 4422 -1887 2152
-3032 4811 -3286 7628 -41 453 -46 578 -46 1215 0 637 4 736 46 1210 177 1989
811 3942 1835 5661 772 1295 1736 2425 2904 3403 2046 1713 4540 2773 7175
3051 196 20 611 55 663 55 8 0 12 19 12 60 0 67 7 63 -90 54z"/>
<path d="M57357 106614 c-1523 -282 -2929 -855 -4212 -1715 -642 -430 -1128
-830 -1691 -1393 -581 -582 -970 -1055 -1409 -1716 -1024 -1542 -1647 -3309
-1820 -5160 -30 -331 -36 -453 -42 -890 -9 -686 19 -1130 112 -1775 290 -2015
1147 -3934 2469 -5530 380 -458 880 -966 1345 -1364 798 -684 1770 -1295 2736
-1721 565 -249 1224 -473 1830 -624 294 -73 850 -186 912 -186 9 0 13 18 13
58 l0 59 -102 18 c-194 33 -584 115 -784 164 -3157 782 -5789 2889 -7248 5801
-651 1301 -1021 2640 -1142 4135 -21 268 -30 1069 -15 1361 166 3160 1626
6056 4049 8033 1181 964 2546 1678 3986 2086 362 103 818 206 1149 262 l107
17 0 63 c0 35 -1 63 -2 62 -2 0 -110 -20 -241 -45z"/>
<path d="M57345 101946 c-678 -347 -1252 -736 -1824 -1233 -183 -159 -639
-614 -796 -793 -671 -769 -1184 -1609 -1560 -2555 -329 -829 -520 -1666 -597
-2620 -17 -210 -17 -1015 0 -1225 33 -410 93 -834 167 -1186 309 -1470 992
-2830 1997 -3980 139 -159 478 -506 653 -667 478 -441 1063 -864 1650 -1192
131 -73 547 -285 559 -285 3 0 6 28 6 63 l0 63 -72 32 c-103 45 -484 252 -668
362 -826 494 -1585 1147 -2215 1905 -985 1187 -1644 2650 -1879 4175 -219
1420 -81 2889 398 4227 566 1582 1547 2928 2881 3955 436 335 924 640 1418
884 l137 69 0 62 c0 35 -3 63 -7 63 -5 0 -116 -56 -248 -124z"/>
<path d="M7320 97787 c-19 -6 -57 -34 -85 -62 -43 -43 -66 -86 -158 -283 -120
-257 -130 -297 -103 -380 29 -87 68 -115 333 -241 206 -99 246 -115 301 -119
53 -4 70 0 117 23 30 14 67 42 81 60 13 18 75 138 136 267 124 260 137 307
104 393 -32 81 -73 110 -337 235 -261 122 -306 135 -389 107z"/>
<path d="M14988 83620 c-248 -32 -390 -55 -413 -66 -106 -50 -158 -169 -124
-284 17 -55 483 -666 537 -704 61 -43 149 -48 225 -13 31 14 65 39 80 59 15
19 95 196 178 394 165 390 176 427 145 509 -33 86 -135 157 -220 154 -17 -1
-201 -23 -408 -49z"/>
<path d="M0 74780 c0 -36 4 -60 11 -60 17 0 502 -184 700 -265 498 -206 1145
-516 1584 -761 2070 -1152 3804 -2736 5147 -4704 654 -959 1228 -2067 1650
-3185 889 -2357 1169 -4913 813 -7415 -405 -2842 -1617 -5528 -3466 -7686
-1510 -1761 -3384 -3139 -5524 -4061 -201 -87 -608 -249 -777 -309 l-138 -49
0 -57 c0 -32 2 -58 5 -58 10 0 441 162 607 229 1541 616 2996 1497 4253 2576
528 453 1078 995 1524 1504 1134 1294 2030 2749 2666 4331 1058 2631 1368
5460 900 8220 -463 2728 -1664 5286 -3469 7387 -1599 1862 -3609 3296 -5893
4204 -203 80 -575 219 -588 219 -3 0 -5 -27 -5 -60z"/>
<path d="M0 74622 l1 -67 327 -162 c476 -235 766 -401 1187 -678 1269 -835
2324 -1895 3167 -3180 1513 -2306 2114 -5114 1673 -7820 -585 -3595 -2836
-6627 -6098 -8215 l-257 -125 0 -62 c0 -35 2 -63 5 -63 15 0 458 216 630 307
2060 1092 3691 2741 4746 4798 593 1155 987 2439 1148 3735 61 489 83 854 83
1370 1 413 -9 647 -43 1015 -194 2129 -992 4153 -2310 5860 -292 379 -541 658
-943 1060 -422 421 -718 681 -1149 1006 -108 82 -195 149 -192 149 16 0 460
-294 685 -454 2005 -1424 3571 -3368 4558 -5661 500 -1163 847 -2470 991
-3740 95 -836 111 -1722 45 -2555 -162 -2070 -812 -4096 -1887 -5885 -1315
-2189 -3267 -3975 -5582 -5106 -228 -111 -598 -279 -737 -335 l-48 -19 0 -62
c0 -35 2 -63 5 -63 8 0 334 140 500 215 237 107 722 352 958 484 1744 972
3234 2294 4392 3896 1448 2002 2326 4404 2519 6885 31 393 38 668 33 1185 -5
495 -11 626 -42 995 -236 2719 -1291 5310 -3026 7425 -584 713 -1262 1384
-1978 1959 -943 758 -2001 1394 -3106 1868 -116 50 -220 94 -232 99 -22 8 -23
7 -23 -59z"/>
<path d="M45265 74564 c-22 -8 -55 -29 -73 -47 -52 -50 -310 -468 -322 -523
-17 -76 8 -159 65 -216 30 -30 444 -291 488 -307 75 -28 183 -3 242 56 51 51
303 466 315 518 17 77 -8 160 -65 217 -36 37 -455 296 -496 308 -47 14 -107
11 -154 -6z"/>
<path d="M0 74262 l0 -67 198 -131 c917 -611 1723 -1410 2345 -2326 781 -1149
1282 -2487 1441 -3848 46 -394 51 -499 51 -1025 -1 -521 -7 -634 -55 -1035
-181 -1488 -766 -2941 -1667 -4140 -254 -339 -473 -591 -798 -915 -428 -428
-839 -766 -1309 -1075 l-204 -135 -1 -68 -1 -68 28 15 c52 27 417 273 557 376
371 272 650 513 1006 869 442 442 737 797 1064 1280 1179 1743 1699 3903 1439
5976 -271 2159 -1331 4145 -2969 5560 -321 277 -750 594 -1073 793 l-52 32 0
-68z"/>
<path d="M15354 57029 c-115 -46 -216 -93 -237 -110 -50 -41 -80 -109 -80
-178 0 -46 14 -89 72 -235 106 -264 114 -276 201 -315 81 -37 128 -30 326 50
97 38 193 78 213 89 48 24 85 65 110 120 35 78 29 113 -60 338 -89 222 -115
264 -193 301 -79 39 -127 31 -352 -60z"/>
<path d="M55395 48731 c-286 -77 -564 -164 -600 -189 -84 -59 -120 -194 -75
-287 41 -85 18 -86 291 8 134 47 346 115 471 153 l228 69 0 45 c0 67 -49 145
-115 181 -69 37 -116 42 -200 20z"/>
<path d="M55510 48294 c-242 -75 -630 -207 -630 -215 0 -4 76 -79 170 -168
153 -144 175 -162 225 -176 94 -28 183 -1 248 75 32 37 40 62 91 268 31 125
59 235 62 245 7 24 -1 22 -166 -29z"/>
<path d="M7752 41070 c-226 -59 -404 -239 -462 -466 -64 -250 35 -519 245
-669 380 -271 905 -67 999 388 20 96 20 157 0 255 -71 354 -435 583 -782 492z"/>
<path d="M44686 33007 l-39 -12 2 -95 c2 -121 26 -478 47 -734 l17 -199 45
-28 c25 -15 68 -33 97 -40 70 -16 147 6 202 58 33 30 266 390 311 478 37 74
17 186 -45 252 -46 50 -447 300 -510 319 -54 16 -75 17 -127 1z"/>
<path d="M44405 32677 c-134 -215 -152 -261 -134 -345 16 -80 57 -125 192
-209 66 -41 120 -73 122 -71 1 2 -3 69 -11 150 -7 81 -20 263 -29 404 -9 142
-17 259 -18 260 -1 1 -56 -84 -122 -189z"/>
<path d="M53154 19716 c-297 -68 -505 -306 -530 -605 -21 -249 130 -515 356
-628 111 -56 183 -73 302 -74 113 0 194 18 293 66 174 84 301 242 351 435 23
86 22 235 0 320 -59 220 -235 403 -451 470 -90 28 -237 35 -321 16z"/>
<path d="M14910 15526 c-175 -63 -367 -149 -398 -179 -52 -50 -75 -102 -74
-172 0 -52 12 -88 82 -260 86 -212 109 -247 185 -288 30 -16 56 -21 105 -20
57 1 88 10 250 77 217 90 250 110 287 173 23 39 28 60 28 113 0 58 -9 87 -80
265 -90 225 -120 268 -210 298 -65 22 -97 21 -175 -7z"/>
<path d="M48439 9515 c-442 -108 -648 -629 -399 -1009 109 -166 273 -269 474
-297 270 -38 550 112 674 360 56 111 76 207 70 335 -8 174 -68 306 -198 436
-129 129 -282 191 -469 189 -53 0 -121 -7 -152 -14z"/>
<path d="M54590 7109 c-129 -38 -266 -78 -303 -89 -80 -24 -135 -69 -168 -136
-28 -58 -23 -163 9 -216 33 -54 471 -468 517 -489 62 -28 141 -25 206 9 92 48
102 70 185 409 75 305 85 377 61 436 -36 86 -130 148 -222 146 -30 -1 -143
-28 -285 -70z"/>
<path d="M44442 7010 c-96 -25 -152 -51 -227 -105 -263 -188 -351 -546 -204
-836 87 -174 238 -295 429 -345 102 -27 255 -23 355 10 208 67 371 226 437
426 29 89 36 272 14 361 -47 188 -182 358 -347 438 -149 72 -309 89 -457 51z"/>
<path d="M0 5125 c0 -278 2 -505 4 -505 3 0 131 75 286 167 301 178 327 199
351 287 21 76 -8 172 -68 227 -22 21 -556 329 -570 329 -1 0 -3 -227 -3 -505z"/>
</g>
</svg>
